<svg width="30" height="30" viewBox="0 0 30 30" fill="none" xmlns="http://www.w3.org/2000/svg">
<path d="M23.3419 25.653C23.4183 25.7654 23.4718 25.8916 23.4993 26.0246C23.5268 26.1576 23.5278 26.2948 23.5022 26.4282C23.4767 26.5615 23.4251 26.6886 23.3504 26.802C23.2757 26.9155 23.1794 27.0131 23.0669 27.0893C21.0757 28.4371 18.7911 29.2896 16.4036 29.5757C14.0161 29.8618 11.5948 29.5733 9.34144 28.7342C7.08805 27.895 5.06783 26.5296 3.44912 24.7516C1.83041 22.9736 0.660068 20.8345 0.0356131 18.5126C-0.0116654 18.3372 -0.0118736 18.1525 0.0350093 17.977C0.0818922 17.8015 0.17421 17.6415 0.302656 17.5131C0.431103 17.3846 0.59114 17.2923 0.766637 17.2454C0.942134 17.1986 1.12689 17.1988 1.30228 17.246C2.40386 17.5399 3.53917 17.6884 4.67928 17.6877C7.27261 17.6923 9.8076 16.9183 11.9559 15.4659C12.0685 15.3899 12.1949 15.3367 12.3279 15.3096C12.4609 15.2824 12.598 15.2817 12.7314 15.3075C12.8647 15.3333 12.9916 15.3852 13.1049 15.46C13.2182 15.5349 13.3156 15.6313 13.3916 15.7438C13.4676 15.8563 13.5207 15.9827 13.5479 16.1158C13.5751 16.2488 13.5758 16.3859 13.5499 16.5192C13.5241 16.6525 13.4723 16.7794 13.3974 16.8927C13.3226 17.006 13.2261 17.1034 13.1136 17.1794C10.6239 18.8632 7.68597 19.7607 4.68028 19.7558C3.98158 19.756 3.28371 19.708 2.59161 19.6122C3.33498 21.3919 4.46442 22.9842 5.89833 24.2742C7.33223 25.5641 9.03479 26.5195 10.883 27.0712C12.7312 27.623 14.6789 27.7573 16.5854 27.4646C18.4919 27.1718 20.3095 26.4593 21.9069 25.3784C22.1337 25.2246 22.4122 25.1671 22.6813 25.2186C22.9504 25.2701 23.188 25.4264 23.3419 25.653ZM29.6973 29.69C29.6013 29.7861 29.4873 29.8624 29.3619 29.9144C29.2364 29.9664 29.1019 29.9932 28.9661 29.9932C28.8303 29.9932 28.6958 29.9664 28.5704 29.9144C28.4449 29.8624 28.3309 29.7861 28.2349 29.69L8.47795 9.93497C8.38191 9.83894 8.30572 9.72493 8.25375 9.59946C8.20177 9.47399 8.17502 9.33951 8.17502 9.2037C8.17502 9.06789 8.20177 8.93341 8.25375 8.80794C8.30572 8.68246 8.38191 8.56846 8.47795 8.47242C8.57399 8.37639 8.688 8.30022 8.81348 8.24824C8.93897 8.19627 9.07346 8.16952 9.20928 8.16952C9.3451 8.16952 9.47959 8.19627 9.60507 8.24824C9.73056 8.30022 9.84457 8.37639 9.94061 8.47242L14.5846 13.1164C16.5996 10.7658 17.7032 7.76966 17.6943 4.67373C17.6952 3.53313 17.5466 2.39732 17.2523 1.29534C17.205 1.11996 17.2048 0.935222 17.2517 0.759739C17.2986 0.584257 17.3909 0.424232 17.5193 0.295796C17.6478 0.16736 17.8078 0.0750496 17.9833 0.0281705C18.1588 -0.0187086 18.3436 -0.0185004 18.5189 0.0287743C20.9912 0.692854 23.2537 1.97501 25.0937 3.75456C26.9337 5.53411 28.2906 7.75254 29.0367 10.2011C29.7828 12.6496 29.8936 15.2477 29.3586 17.7508C28.8236 20.2539 27.6605 22.5798 25.9786 24.5095L29.6973 28.2265C29.7936 28.3225 29.87 28.4365 29.9221 28.5621C29.9743 28.6877 30.0011 28.8223 30.0011 28.9583C30.0011 29.0942 29.9743 29.2289 29.9221 29.3544C29.87 29.48 29.7936 29.5941 29.6973 29.69ZM16.0509 14.5826L24.5126 23.0436C25.8423 21.483 26.7847 19.6305 27.263 17.6369C27.7413 15.6433 27.742 13.5649 27.2651 11.5709C26.7881 9.57699 25.847 7.72385 24.5183 6.16239C23.1896 4.60092 21.5109 3.37528 19.6189 2.58523C19.7146 3.27729 19.7626 3.9751 19.7626 4.67373C19.7728 8.31833 18.4531 11.8415 16.0509 14.5826Z" fill="#323232"/>
</svg>
