<svg width="192" height="192" viewBox="0 0 192 192" fill="none" xmlns="http://www.w3.org/2000/svg">
<rect x="2" y="2" width="188" height="188" fill="#FAFAFA" stroke="#323232" stroke-width="4"/>
<path d="M88.383 125.492H57.729L52.815 140H31.872L61.59 57.866H84.756L114.474 140H93.297L88.383 125.492ZM83.235 110.048L73.056 79.979L62.994 110.048H83.235ZM153.201 95.072H143.265V140H124.797V95.072H118.101V79.736H124.797V78.008C124.797 70.592 126.921 64.976 131.169 61.16C135.417 57.272 141.645 55.328 149.853 55.328C151.221 55.328 152.229 55.364 152.877 55.436V71.096C149.349 70.88 146.865 71.384 145.425 72.608C143.985 73.832 143.265 76.028 143.265 79.196V79.736H153.201V95.072Z" fill="#323232"/>
</svg>
