<svg xmlns="http://www.w3.org/2000/svg" viewBox="0 0 100 125" x="0px" y="0px"><title>button</title><g data-name="22"><path d="M75.025,81.979a3.1,3.1,0,0,1-.825,4.309A45.27,45.27,0,0,1,5.106,60.556a3.1,3.1,0,0,1,3.8-3.8,39.2,39.2,0,0,0,10.131,1.325,38.849,38.849,0,0,0,21.83-6.666,3.1,3.1,0,1,1,3.473,5.141,45.028,45.028,0,0,1-25.3,7.73,45.608,45.608,0,0,1-6.266-.431,39.069,39.069,0,0,0,57.946,17.3A3.1,3.1,0,0,1,75.025,81.979ZM94.091,94.091a3.1,3.1,0,0,1-4.387,0L30.433,34.821a3.1,3.1,0,1,1,4.388-4.388L48.753,44.366a38.751,38.751,0,0,0,9.329-25.33A39.155,39.155,0,0,0,56.756,8.9a3.1,3.1,0,0,1,3.8-3.8A45.261,45.261,0,0,1,82.935,78.548L94.091,89.7A3.1,3.1,0,0,1,94.091,94.091ZM53.152,48.765,78.537,74.15A39.063,39.063,0,0,0,63.856,12.77a45.766,45.766,0,0,1,.431,6.266A44.918,44.918,0,0,1,53.152,48.765Z"/></g><text x="0" y="115" fill="#000000" font-size="5px" font-weight="bold" font-family="'Helvetica Neue', Helvetica, Arial-Unicode, Arial, Sans-serif">Created by pictranoosa</text><text x="0" y="120" fill="#000000" font-size="5px" font-weight="bold" font-family="'Helvetica Neue', Helvetica, Arial-Unicode, Arial, Sans-serif">from the Noun Project</text></svg>